<?xml version="1.0" encoding="UTF-8"?>
<svg id="Layer_1" xmlns="http://www.w3.org/2000/svg" version="1.1" viewBox="0 0 414.32 127.07">
  <!-- Generator: Adobe Illustrator 30.4.0, SVG Export Plug-In . SVG Version: 2.1.4 Build 226)  -->
  <defs>
    <style>
      .st0 {
        fill: #fff;
      }
    </style>
  </defs>
  <path class="st0" d="M295.2,74.6s25.02-7.33,29.33-12.08c4.31-4.74,17.25-13.37,18.98-17.25s-3.02,3.88,3.02,5.61c6.04,1.73,28.9,4.1,34.07,8.52s21.13,11.75,24.59,12.61,7.76,2.16-8.63,4.74c-16.39,2.59-28.47,14.66-28.47,14.66,0,0-4.98-5.18-16.29-3.02s-27.7,2.59-31.59,12.08c0,0-7.76-5.61-20.7,3.88s-33.64,7.76-37.09,9.06-20.24,7.33-23.49,6.9c0-.43,10.98-9.06-1.96-8.63s-25.02-5.18-30.19-9.49-31.05,4.74-31.92,12.51c0,0-7.33-13.37-15.1-16.82s-11.21-6.04-18.12-11.65c-6.9-5.61-25.45-9.49-30.19-9.06l-4.74.43s-.86-10.35-6.04-14.66-16.39-5.18-16.82-9.06-9.92-10.34-16.82-9.7-11.65-.04-11.65-.04c0,0-3.88-11.82-9.92-13.98-6.04-2.16-14.66-6.04-18.98-9.49S1.92,15.07,1.92,15.07c0,0,6.88-7.76,29.31-3.02,22.43,4.74,26.31,2.59,40.11,6.47,13.8,3.88,36.23,3.88,43.99,7.33s32.5,4.12,30.77-.62-1.51-7.99-1.51-7.99c0,0,4.81,6.88,12.58,15.94,7.76,9.06,15.53,10.35,21.13,17.68,5.61,7.33,17.25,13.15,22.86,14.55s15.96,13.48,23.72,10.46,21.13-4.31,19.84-12.51c-1.29-8.2-5.61-21.57,1.29-17.68s12.51,9.49,12.51,14.66,11.21,8.84,12.08,5.07c.86-3.77,6.9-14.56,3.88-16.5s4.31-3.66,8.63,12.3c4.31,15.96-1.73,16.39,0,17.68s12.08-4.31,12.08-4.31v.02Z"/>
</svg>