<?xml version="1.0" encoding="UTF-8"?>
<svg id="Layer_1" xmlns="http://www.w3.org/2000/svg" version="1.1" viewBox="0 0 418 424">
  <!-- Generator: Adobe Illustrator 30.4.0, SVG Export Plug-In . SVG Version: 2.1.4 Build 226)  -->
  <defs>
    <style>
      .st0 {
        fill: #fff;
        font-family: SuisseIntlMonoTrial-Bold, 'Suisse Int'l Mono Trial';
        font-size: 80px;
        font-weight: 700;
      }

      .st1 {
        fill: #e5d0b3;
      }
    </style>
  </defs>
  <path class="st1" d="M91.9,224.77c6.47-2.19,13.45-1.97,19.88.36,4.14,1.5,8.75,1.81,11.42-2.32,5.7-8.81,9.33-22.29,30.58-23.84,21.25-1.55,22.3-3.11,39.92,0s27.46-2.59,38.35,4.66c10.88,7.26,18.66,12.96,34.73,12.96s21.25,13.48,32.14,14.51,44.58,14.51,58.05,13.48,31.62,4.15,36.28,3.63-2.07,5.18-2.07,5.18c0,0,12.96-3.11,6.74,0s-19.18,6.22-13.48,6.22,8.29.52-6.74,3.11c-15.03,2.59-13.99,10.88-22.29,14.51-8.29,3.63-22.29,6.22-29.03,13.48s-11.92,17.1-24.88,17.62-25.4,2.07-31.62,4.66-11.4,9.33-9.33,13.48,7.77,8.29,7.77,12.44,4.15,29.03,5.7,34.73,3.11,20.73,7.26,22.29c4.15,1.55,8.29,7.26,8.29,7.26,0,0-4.66,4.66-16.59,3.11-11.92-1.55-15.55-3.11-27.99-2.07s-17.62,5.82-24.88,2.39,10.37-5.5,25.92-8.09,25.4,6.74,24.88-2.59-7.26-30.58-7.77-37.32-7.26-12.44-7.26-19.18-.9-13.48-4.6-14.51c-3.7-1.04-9.92-7.26-20.8-7.26s-18.14,1.33-23.84,4.29-11.39.37-12.95,9.18c-1.56,8.81,0,18.66-11.41,25.4-11.4,6.74-24.36,17.1-27.47,19.7-3.11,2.59-11.92,11.4-11.92,15.03s4.66,8.29,4.15,10.88,1.04,1.55-11.92,2.07-24.88,1.04-32.14,1.04-24.88,4.15-20.73,0,22.81,0,39.91-11.92,37.32-29.03,43.02-34.21c5.7-5.18,16.59-14.51,16.59-20.73s8.81-19.7,7.26-22.81-7.77-4.66-16.07-6.22c-8.29-1.55-17.62-4.92-23.32-6.87-5.7-1.94-19.18-2.46-29.54-7.13s-15.55-10.88-19.7-10.88-12.65-.52-18.77,2.59-25.81,29.54-32.55,44.06c-6.74,14.51-11.4,27.47-13.99,27.47s8.29-27.99,18.66-46.13c0,0-23.84,47.17-27.47,47.17s-1.04-6.74,23.84-52.87c12.96-25.4,13.99-33.69,12.96-35.25s-8.81-14.51-2.59-22.81c6.22-8.29,14.51-10.37,15.03-15.55s9.85-6.22,16.07-8.29c.11-.04.21-.07.32-.11h0Z"/>
  <text class="st0" transform="translate(108.92 71.54)"><tspan x="0" y="0">NOT-</tspan><tspan x="-77.52" y="96">ARRIVED</tspan></text>
</svg>