<?xml version="1.0" encoding="UTF-8"?>
<svg id="Layer_2" xmlns="http://www.w3.org/2000/svg" version="1.1" viewBox="0 0 509.12 594.73">
  <!-- Generator: Adobe Illustrator 30.4.0, SVG Export Plug-In . SVG Version: 2.1.4 Build 226)  -->
  <defs>
    <style>
      .st0 {
        fill: #fff;
        font-family: Arial-BoldMT, Arial;
        font-size: 80px;
        font-weight: 700;
      }

      .st0, .st1 {
        isolation: isolate;
      }

      .st2 {
        fill: red;
      }
    </style>
  </defs>
  <g>
    <path class="st2" d="M250.3,363.73s-6.3,2.1-13.64,0-15.22-3.38-23.09.93-14.17,10.09-21.51,10.61-29.38,3.67-34.63,11.02-2.1,13.12-8.39,14.69-15.74,12.07-16.79,17.84-8.39,14.69-13.64,18.36-16.26,10.49-12.07,12.59,14.17,3.67,22.04,2.1c7.87-1.57,15.74-4.49,24.66.64s19.53,13.53,24.72,13,19.35,3.15,21.45,8.39,21.51,13.12,24.66,16.26,17.31,8.39,26.23,6.82,21.51,2.62,28.33-2.62,23.09-10.49,26.23-20.99,12.07-19.94,16.26-19.94,19.94-9.44,20.46-13.64,21.51-11.62,27.28-10.27,16.26-4.42,15.74-8.09-8.39-5.77-15.22-5.77-19.94-5.25-22.04-9.97-2.1-11.02-6.3-11.02-11.02-1.05-13.12-4.72-1.57-12.07-6.3-11.54-9.97-4.2-16.26-4.72-20.99-1.57-25.71-4.2-11.54-9.65-15.22-7.71-11.54-2.78-14.17,1.94h.04Z"/>
    <path class="st2" d="M321.65,378.42s-1.05-7.87,6.82-14.69,16.26-9.44,20.46-11.54,10.49-1.05,13.64-4.72,12.07-6.82,8.92-11.02-1.57-10.49-7.87-10.49-12.5-5.25-16.74-8.92-4.24-11.54-8.96-12.07-7.87-7.35-12.07-8.39-16.79-5.77-23.61-5.77-25.71-6.82-29.91-12.07-8.39-13.64-5.77-13.64,9.97,11.54,20.99,11.54,21.51,8.39,26.23,6.82,13.64-.52,9.44-6.82-6.3-12.07-11.02-11.54-5.77-1.05-12.07-4.72-18.89-9.97-24.13-9.44,4.2-4.2,15.74-3.15,26.08,3.15,27.21,7.35,8.47,13.12,12.14,13.12,7.35,3.67,11.54,7.35,11.54-.52,15.74,4.72,16.79,15.22,17.84,20.46,6.3,12.59,11.02,16.26,13.12,13.12,12.59,20.46-4.2,16.79-8.92,19.94-13.12,11.02-14.17,14.69-9.97,16.26-16.79,16.79-12.78,5.83-14.78,10-12.37,4.69-12.37,4.69l-11.15-25.18v-.02h.01Z"/>
    <path class="st2" d="M373.19,415.88s2.5-10.18,7.22-12.28,7.35-4.72,7.35-8.39,6.87-8.92,12.09-13.12,9.95-11.02,9.95-16.79-4.2-18.36,0-15.74,7.35,8.92,6.82,20.46,2.62,20.46-3.67,22.56-15.22,10.49-15.22,14.17-5.77,19.8-9.44,17.24-15.09.27-15.09.27v-8.39h-.01Z"/>
    <path class="st2" d="M325.32,448.2s8.39,4.2,18.36,0,27.28-3.67,33.58-4.72,16.84-8.92,22.58-8.92,25.16-1.57,28.31,0,19.94,2.22,20.99,7.4,5.77,15.16,0,19.88-1.57-13.29-7.87-13.99-18.75.35-24.33-1.75-15.61-4.2-21.88-1.57-25.15,3.15-27.77,6.3-15.74,12.07-23.61,11.81-21.01,6.03-24.66,0-6.3-9.19-6.3-9.19l12.59-5.25h0Z"/>
    <path class="st2" d="M300.66,470.24s11.54,2.1,16.79,6.3,12.07-.52,17.84,0,15.22,2.46,23.09,1.75,21.02.87,26.25,4.54,15.2,4.2,21.49,4.2,19.94,3.72,23.09,10.26,9.97,19.65,7.35,24.9-1.05,1.05-7.35-7.35-9.97-11.02-16.79-11.54-16.79-6.08-20.99-5.93-18.3-1.94-22.53-5.09-17.87,3.67-30.99,1.05-20.99-6.82-25.18-6.82-7.99,6.82-17.38-2.1,5.31-14.17,5.31-14.17h0Z"/>
    <path class="st2" d="M276.53,489.65s1.57,4.41,11.02,7.72,9.44,9.6,18.36,11.7,11.54,3.67,15.22,12.59,6.3,15.22,6.3,23.61-9.97,17.31-8.39,20.46,8.92,19.41,23.09,4.72,17.31-19.41,14.17-24.66-10.49-5.49-11.54-12.71-8.39-13.52-8.92-17.72-8.39-10.49-12.07-11.02-2.62-3.1-19.94-7.06-21.51-23.9-21.51-23.9l-5.77,16.26h-.02,0Z"/>
    <path class="st2" d="M217.77,482.83s-5.77,14.22-12.07,14.45-17.84,4.96-18.36,7.06-16.79,1.57-16.79,3.15-4.72.52,0,9.44c4.72,8.92-1.57,20.46,3.15,23.61s22.56,20.46,12.07,27.81-20.46-1.57-28.33-13.12-15.22-15.74-13.64-25.18,4.2-24.13,10.49-28.33,9.44-1.52,15.22-4.43,16.26-10.26,26.23-10.26,13.12-21.77,13.12-21.77l8.92,17.58h-.01Z"/>
    <path class="st2" d="M159.53,449.56s.62,8.61-15.95,12.81-28.12,8.92-32.31,13.12-22.56,6.82-24.13,13.64-18.89,15.22-18.89,19.94-7.87,17.84,0,25.71,11.54,18.36,11.02,11.02-7.87-22.04-1.57-23.61c6.3-1.57,12.07-12.07,12.07-15.22s11.77-7.7,15.86-8.05,16.67-14.51,21.92-14.51,19.94-3.67,26.76-8.92,22.87-15.22,26.39-15.22-21.14-10.71-21.14-10.71h-.03Z"/>
    <path class="st2" d="M125.43,449.56s-25.18,6.51-40.4-7.13-15.39-22.56-20.29-26.23-8.04-23.76-7.52-29.46,4.02-23.01,7.52-17.76-.17,23.09,4.02,25.18,15.74,3.15,17.31,18.89,5.77,18.01,11.54,20.81,24.81,3.32,25.26,7,2.55,8.7,2.55,8.7h.01Z"/>
    <path class="st2" d="M138.02,418.82s-16.26-3.31-23.61-9.26-20.46-16.07-20.99-22.82-7.35-16.57-9.97-18.74-12.59-21.06-6.3-27.88,21.98-25.71,14.14-8.39-2.13,23.61,0,24.13,6.32,3.82,8.42,12.14,6.3,20.39,10.49,21.96,10.49,6.82,18.89,9.44,22.04,10.15,22.04,10.15l-13.12,9.26h0Z"/>
    <path class="st2" d="M170.55,386.74s-28.33-20.91-37.78-34.03-9.97-24.29-12.59-27.1-2.62-19.6,0-24.32,11.54-14.17,9.44-17.84,14.69-18.36,23.61-17.84,21.46-13.12,27.78-12.59,9.99-13.12,29.93-13.12,25.32-8.92,34.17-2.1,22.1,4.2,0,5.77-36.79,6.82-37.32,11.54c-.53,4.72-16.26,16.26,0,11.02,16.26-5.24,41.45-20.99,29.38-7.35-12.07,13.64-18.89,16.26-19.41,22.04s-16.26,13.64-21.51,9.44-11.54-4.72-17.84,2.62-22.04,3.15-24.13,8.92-20.37,11.39-10.71,23.8,20.15,8.21,20.15,16.6,9.44,8.39,12.59,16.26,12.3,18.36,11.4,23.09-17.17,5.17-17.17,5.17v.02h.01Z"/>
    <path class="st2" d="M202.55,376.33s-13.12-9.8-6.82-14.87,10.41-7.65,10.49,0,4.2,14.87,4.2,14.87h-7.87Z"/>
    <path class="st2" d="M276.53,371.72s-4.2-12.71,2.1-12.71,11.76.8,8.39,6.35-5.42,15.16-5.42,15.16l-5.07-8.8h0Z"/>
  </g>
  <g class="st1">
    <g class="st1">
      <text class="st0" transform="translate(159.78 109.4)"><tspan x="0" y="0">NOT-</tspan></text>
    </g>
    <g class="st1">
      <text class="st0" transform="translate(37.51 205.4)"><tspan x="0" y="0">DEPARTED</tspan></text>
    </g>
  </g>
</svg>