<?xml version="1.0" encoding="UTF-8"?><svg id="Layer_2" xmlns="http://www.w3.org/2000/svg" viewBox="0 0 500 500"><path d="M66.88,226.19s-7.11-52.71,11.84-69.88,13.03-26.06,29.61-36.12,44.42-24.87,66.92-27.83,51.52-3.55,51.52-3.55c0,0,8.29-11.84,19.54-20.14s27.24-5.33,36.72-13.62,28.43-11.84,36.72-9.48,27.83-2.37,8.88,15.4-27.24,10.66-26.06,21.91,7.11,19.54,5.33,28.43,7.11,16.58,7.11,16.58c0,0,58.63,44.42,63.37,90.61s3.55,46.19,7.7,62.18,0,56.26,0,56.26c0,0,4.74-3.55,18.36,7.11s13.62,16.58,24.28,23.1,15.4,15.99,13.62,26.06c-1.78,10.07,8.29,45.6-4.15,31.39-12.44-14.21-19.54-29.61-29.61-29.02s-23.1-10.66-33.76-7.11-41.45,5.92-44.42,17.17-13.62,37.9-13.62,10.07,4.15-50.34,11.84-50.93,13.62-20.73,26.06-22.5c0,0-2.37-52.11-11.25-60.41s-20.14-29.02-25.47-39.09-25.47-24.87-36.72-23.69-33.76-4.98-48.56-6.34-29.02,0-29.02,0c0,0,2.96,19.37,14.81,19.96s25.47,16.24,24.87,17.3,15.99,9.94-4.15,12.91-42.05.92-50.93-7.53-14.81-25.31-21.91-25.76-8.88-12.9-8.88-12.9l-5.33,1.78s-7.11,6.25-19.54,11.12-27.24,11.39-29.02,16.12-10.66,8.88-17.77,17.77-27.83,17.17-26.06,4.15l2.37-7.78s-15.4-4.06,4.74-33.68Z" fill="#47b9e1"/></svg>