<?xml version="1.0" encoding="UTF-8"?>
<svg id="Layer_2" xmlns="http://www.w3.org/2000/svg" version="1.1" viewBox="0 0 506 506">
  <!-- Generator: Adobe Illustrator 30.4.0, SVG Export Plug-In . SVG Version: 2.1.4 Build 226)  -->
  <defs>
    <style>
      .st0 {
        fill: #fff;
        font-family: SuisseIntlMonoTrial-Bold, 'Suisse Int'l Mono Trial';
        font-size: 80px;
        font-weight: 700;
      }

      .st1 {
        fill: #39b54a;
      }
    </style>
  </defs>
  <path class="st1" d="M168.33,246.03s-4.9-13.23,2.45-21.07c0,0-16.17-20.09,9.31-27.93,0,0,9.8-12.74,20.58-5.39,10.78,7.35,10.29,8.82,15.68,11.27s19.11-.49,19.11-.49c0,0,10.29-12.74,20.58-8.33,10.29,4.41,17.15-2.94,22.05,7.35s10.78,7.03,14.21,16.25,15.19,24.91,35.28,31.77,26.46,13.23,33.81,21.56,21.07,8.33,35.77,22.05,37.73,34.3,44.1,48.02,9.8,18.62,16.66,21.07c6.86,2.45,19.11,3.92,16.17,25.97s4.41,22.05-5.39,36.26c-9.8,14.21-21.07,23.03-26.46,34.3-5.39,11.27-24.01,40.18-35.28,32.83-11.27-7.35,18.62-26.95,3.92-25.48-14.7,1.47-63.21,17.15-49.49,2.45,13.72-14.7,21.07,2.45,37.24-9.8s12.74-11.76,12.74-11.76c0,0-10.78,10.29-22.54.49-11.76-9.8-17.64-14.7-10.78-20.58,6.86-5.88,1.47-4.9-4.9-5.39s-12.25-.98-12.25-.98c0,0-5.88,5.39-7.84,14.7s-7.84,10.78-7.84,18.13-2.94,22.05,0,24.5,17.15,17.64,2.45,12.74-16.33-23.03-25.8-14.7-17.31,24.41-27.11,16.86,15.19-15.39,17.64-25.19-30.87,3.43-41.65,3.43-12.74-11.76.49-13.23,39.49,1.96,48.9-11.76,7.45-23.52,7.45-23.52c0,0,4.21-5.39-7.45-5.39s-19.99,3.92-29.3,1.47-17.64-1.96-22.54-.98-14.21-1.47-9.31-5.88c4.9-4.41-9.8.49-15.19,0s-9.8-8.33,1.96-8.33,23.03-1.47,23.03-1.47c0,0,.49-9.31-6.37-10.29s-12.74-11.27-7.35-17.15c5.39-5.88,12.74-9.31,12.74-9.31l-4.41-2.94c-4.41-2.94-6.86-10.29-9.31-11.27-2.45-.98-4.9.98-7.35,6.86-2.45,5.88-7.84,16.66-9.31,23.52s-12.74,20.09-8.33,24.99,6.37,13.23,16.17,13.23,26.46,8.33,12.25,10.78-31.36-14.7-33.32-2.45,11.76,16.17,8.33,20.09c-3.43,3.92-17.15,8.82-19.6-7.35s-17.64-6.86-31.36-.98c-13.72,5.88-19.11,21.56-24.01,10.29s7.35-7.84,12.74-12.25,13.72-9.31,13.72-9.31c0,0-4.9.49-16.66.49s-31.85,2.94-20.58-6.86,13.23,0,24.99-1.96,26.95-4.9,29.89-14.7c2.94-9.8,9.8-10.78,9.8-17.15s-1.47-13.23,0-18.62,3.92-18.74,10.29-27.5,10.29-16.11,9.8-20.52-.98-16.66-4.41-19.6c-3.43-2.94-8.33-12.25-14.7-15.68-6.37-3.43-9.31-13.23-18.13-14.21s-14.7-3.92-18.62-8.33-23.52-8.33-7.35-17.64h-.01Z"/>
  <text class="st0" transform="translate(149.64 69)"><tspan x="0" y="0">NOT-</tspan><tspan x="-103.36" y="96">STRANGER</tspan></text>
</svg>