<?xml version="1.0" encoding="UTF-8"?><svg id="Layer_1" xmlns="http://www.w3.org/2000/svg" viewBox="0 0 166.49 126.55"><path d="M142.7,64.13l-2.33,6.38-5.34,12.95-3.84,14.8-1.21,4.72-.23.88c-.05.18.55.13.81.13h5.93c6.49.02,15.26,1.04,14.97,6.41-.12,2.3-1.39,3.74-3.61,4.64-4.91,1.98-10.07,2.84-15.42,3.65-8.86,1.34-17.56.8-26.32.98l-17.4.37-14.68-.04-17.95-.27-19.3-1.24-12.84-1.36c-2.21-.23-4.6-.76-6.46-1.72-1.74-.9-2.2-3.12-1.6-4.78,1.6-4.47,5.52-6.52,9.7-8.38,4.5-2,9.42-3.17,14.52-3.7.39-.34-.28-.98-.92-1.45-4.62-3.39-8.4-7.12-11.76-11.72l-5.19-3.13c-3.04-7.35-3.52-15.11-1.62-22.92l3.31-18.72,1.33-6.43c.72-3.46,3.86-5.9,5.75-8.76,3-4.53,7.68-8.9,12.79-10.72,2.04-.73,4.92-.23,7.19-.05,4.6.35,8.8.11,13.39-.1l10.31-.49,8.65-2.51,2.75-.18,7.52-2.31,5.49-.81c5.14-.76,10.89.26,15.44,2.79l5.35,2.98,9.26,4.75c9.09,4.66,12.75,12.01,15,21.71,1.17,5.06,1.32,9.97.42,15.18l-1.04,5.97-.83,2.5Z"/><path d="M98.22,115.63c8,.27,14.26-.99,21.25-3.65,4.6-1.75,8.17-4.01,9.05-9.03l1.86-10.67c.78-4.47,1.97-8.34,3.71-12.56l3.27-7.92c2-4.85,4.32-9.3,5.01-14.46l.99-7.37c.78-5.78-2.19-17.27-4.02-18.97l-9.88-9.16c-3.16-2.93-7.07-5.1-10.96-6.98l-8.25-4c-1.37-.66-4.46-1.04-6.11-.96l-8.49.44-14.99,4.27c-9.36,1.21-18.42,2.07-27.81,2.05-2.66,0-5.77-.59-8.25.52-6.9,3.08-15.22,10.87-17.58,17.87-1.52,4.53-2.12,9.04-2.81,13.74l-2.31,15.71-.3,8.36c-.12,3.26.85,6.37,2.46,9.11,5.01,1.15,6.24,5.58,10.25,9.24l14.53,13.26c5.41,5.7,12.21,9.92,20.39,10.19l11.38.39,17.58.59Z" fill="#fff"/></svg>