<?xml version="1.0" encoding="UTF-8"?><svg id="Layer_1" xmlns="http://www.w3.org/2000/svg" viewBox="0 0 31.73 31.68"><path d="M28.67,23.22s-.08.09-.12.13c-.19.23-.37.41-.58.63l-1.05,1.08c-.21.22-.35.49-.48.76-.09.18-.45.33-.57.45-.52.49-1,.88-1.62,1.25-.22.13-.51.41-.71.51-1.43.69-.78.74-2.35,1.53-.84.43-1.62.9-2.46,1.47-.77.52-1.78.85-2.65.52-.17-.25-.22-1.02.01-1.21.37-.31.81-.67,1.2-.9l3.22-1.91,2.52-1.85,1-.66c.59-.39,1.12-.84,1.62-1.36l1.79-1.89c-.72-.48-2.03,1.18-3.1,1.78l-3.56,1.99c-1.06.59-1.99,1.25-3.07,1.8-.92.46-1.8,1.03-2.78,1.35l-1.52.49c-1.75.57-2.66.71-3.88,0l-.74-.52c-.2-.14-.32-.36-.33-.61v-.24c-.02-.15,0-.29.06-.43.4-.87,1.18-1.51,1.96-2.06,1.11-.78,1.64-.85,2.99-1.65.95-.56,1.89-.97,2.91-1.38l1.36-.54c.67-.27,1.24-.7,1.81-.95l1.75-.78c.47-.21.86-.64,1.25-.99l1.8-1.63c.75-.67,1.7-1.13,2.32-1.95.35-.46.67-.89,1.04-1.34.31-.37.83-.77.8-1.34-.04-.64-.88-1.03-1.53-.89-2.15.46-4.31,1.13-6.21,2.3-.74.46-1.34.94-2.21,1.22-1.33.43-1.65.99-2.77,1.77-.14.3-1.15.8-1.24.94l-1.75,1.11-1.94,1.28c-.25.17-.72.37-.98.51l-.94.51c-.45.24-.91.65-1.39.86l-4.21,1.85c-.62.27-1.23.4-1.88.27-.22-.04-.41-.16-.56-.33l-.45-.49c-.2-.22-.31-.51-.29-.8.13-2.09.55-2.75,2.29-4.29l1.58-1.4c.2-.17.41-.47.63-.63.81-.59,1.57-1.21,2.44-1.68l1.47-.8,3-1.86,1.57-.85.93-.44c.45-.21.86-.51,1.2-.82.18-.08.54-.22.72-.32l1.38-.78,1.98-1.13,1.36-.76c.78-.44,1.37-.81,1.93-1.54.26-.34.81-1.06.3-1.44-.97-.73-2.23-.33-3.28-.01-1.17.36-2.21.73-3.17,1.51-1.04.85-2.18,1.5-3.33,2.23l-1.67,1.07-2.19,1.37c-.53.33-1.02.62-1.56.92l-4.42,2.43-.86.46c-.2.11-.59.18-.86.25-.68.18-1.43-.13-1.59-.65-.33-1.06,1.9-2.27,2.32-2.67l4.5-4.26,1.8-1.53c.37-.31.8-.67,1.07-1.06.86-1.22,1.14-1,1.48-1.35.13-.14,0-.36-.19-.3-.28.1-.54.18-.75.3l-1.59.89c-1.16.64-2.21,1.35-3.32,2.1-.52.35-1.17.64-1.75.86-.34.13-.64.33-1.09.33,0,0-.67-.46-.73-.7-.05-.19.14-.58.21-.77.03-.06.06-.13.09-.2.23-.47.6-.84,1.06-1.08l.88-.45.59-.29c.29-.14.81-.52,1.05-.78.86-.91,2.01-1.26,3.1-1.64.89-.32,1.71-.6,2.63-.74.78-.11,1.55-.43,2.32-.39l.45.21c.62.21,1.15.75,1.12,1.35-.04.64-.37,1.12-.83,1.46-.2.14-.45.41-.63.52l-1.43.86-.94.61-.22.07-1.49.9c-.4.24-.53.51-.71.89-.41.86-2.86,1.94-2.99,3.13-.02.2.35,0,.55-.07l1.2-1.04,2.26-1.37,2.92-1.68c.34-.2.71-.43,1.01-.65.73-.41.41-.38,1.43-.74l.4-.14c1.78-.61,2.2-.62,3.8-1.71.91-.62,1.44-.23,2.07-.71l.43-.14c2.36-.29,1.37.97,2.91,1.24,1.07.19,1.2.95,1.4,1.22.18.5.41,1-.55,2.1-1.28,1.47-3.45,2.19-4.96,3.3-.79.58-1.53,1.07-2.39,1.53s-2.43,1.8-3.06,2.02l-1.75.6c-.84.29-1.49.74-2.33,1.02-.66.23-1.35.64-1.85,1.08l-1.79,1.56c-.19.17-.48.84-1.39,1.43-.18.12-2.38,1.78-1.81,1.85.61-.05,1.33-.17,1.72-.52.14-.03.48-.3.63-.39l2.1-1.27,1.39-.88.91-.6c1.21-.81,2.47-1.42,3.79-2.02l1.05-.47,2.01-.88c.59-.26,1.18-.73,1.71-1.1l2.17-1.51c.89-.62,1.99-.67,3.01-.92,1.52-.37,1.23-.18,2.37-.4,1.23-.24,2.42.28,3.45.92.46.29.8.58.87,1.25.13,1.12-.65,2.46-1.33,3.16l-.49.31c-.53.48-.91.83-1.41,1.2l-3.87,2.88c-.95.7-1.99,1.22-3.03,1.84-1.53.91-3.15,1.63-4.77,2.43-1.06.52-2.04.99-2.9,1.86-.43.43-1.14.73-1.15,1.49.31.24.94.33,1.36.16l1.64-.65c.47-.19,1.19-.56,1.62-.84l3.66-2.38c.4-.26.82-.66,1.23-.85.6-.28,1.15-.49,1.7-.81,1.34-.76,2-.96,3.05-1.96.34-.33,1-.65,1.48-.71l1.56-.18c.3-.04.83.12.85.42.07,1.01-.37,1.78-.52,2.12-.09.2-.22.38-.37.53l-1.36,1.33Z"/></svg>