<?xml version="1.0" encoding="UTF-8"?>
<svg id="Layer_1" xmlns="http://www.w3.org/2000/svg" version="1.1" viewBox="0 0 33.48 30.86">
  <!-- Generator: Adobe Illustrator 30.3.0, SVG Export Plug-In . SVG Version: 2.1.3 Build 182)  -->
  <defs>
    <style>
      .st0 {
        fill: #fff;
      }
    </style>
  </defs>
  <path class="st0" d="M25.92,28.57c.07.55-1.84,2.48-3.6,1.7-.3-.13-.76-.5-.95-.76-.33-.45-.35-1.12-.49-1.65-.63-2.33.05-1.71-.86-2.85l-1.13-1.41c-.24-1.27-.75-2.23-1.66-3.14-.34-.34-.45-.99-.67-1.38l-1.28-2.28c-.25-.45-.77-.99-1.19-1.35-1.38-1.16-2.65-2.28-3.8-3.69-.93-1.14-2.41-1.77-3.81-2.3-.68-.26-1.27-.46-1.79-1-.15-.15-.24-.56-.33-.77-.38-.9-.09-1.62.65-2.14.58-.41,1.16-.83,2-.72,2.91.39,2.15,1.96,5.12,2.77.34.09.78.52,1.11.73.51.32.89.67,1.28,1.12,1.66,1.89.39,2.47,3.22,4.25l1.09.69c.92.57,3.12,2.09,2.92,3.33-.13.81-.23,1.68.25,2.38,1.09,1.58,1.11.79,1.81,3.41.13.48.41,1.01.5,1.46.47,2.4,1.43,2.27,1.59,3.62l.02-.02Z"/>
  <path class="st0" d="M27.14,23.67s-.03-.05-.04-.08l-.78-1.56c-1.09-2.19-1.79-2.47-2.54-4.48-.36-.96-.47-2.33-1.24-3.07s-1.65-1.26-2.31-2.1l-.52-.66c-1.3-1.65-1.49-1.47-2.9-2.58l-2.9-3.05-.32-.51c-.15-.58-.01-1.43.67-1.67.55-.19,1.07-.36,1.66-.49.42-.1,1.31.07,1.66.35,1.03.82,1.59,1.93,2.17,3.08.32.63,1.08,1.19,1.75,1.55s1.25.49,1.73,1.12c.33.43.68.92,1.06,1.3.65.65,1.11,1.34,1.64,2.07,1.84,2.56,1.88,3.28,3.16,6.06.89,1.94,2.89,2.92,2.5,5.21-.06.38-.45,1.05-.78,1.17l-1.22.39c-.19,0-.45,0-.7-.02-.34-.04-.65-.24-.83-.53l-.91-1.5h0Z"/>
  <path class="st0" d="M31.26,10.61l.42.86c.61,1.26,1,1.39,1.3,2.41.52,1.77.64,3.58.33,5.39-.04.22-.26.54-.43.62-.21.09-.59,0-.83-.13l-.34-.18c-.16-.08-.26-.25-.27-.43-.03-.56-.12-1.12-.24-1.69-.25-1.25-.52-.96-1.24-2.62-.18-.42-.65-.9-.75-1.33-.21-.9-.5-1.58-1.09-2.26l-1.05-1.21c-.28-.32-.76-.59-1.1-.9-.84-.75-1.37-1.72-2.03-2.61-1.09-1.45-2.63-2.37-4.13-3.32-.63-.4-1.16-.92-1.81-1.23s-.36-.24-.54-.59c-.14-.26-.06-.58.17-.76l.05-.04c.48-.16,1.38-.38,1.93-.39.29,0,.47-.02.65-.08.29-.09.6-.11.9-.05l1.95.39c.08.02.16.04.23.06.6.2,1.11.4,1.54.84.69.71,1.39,1.47,2.19,2.09.97.76,2.09,1.25,2.78,2.4.24.4.65.82.8,1.25.09.25.16.43.27.64.42.81.3,1.76.26,2.68l.06.22.02-.03Z"/>
  <path class="st0" d="M17.29,27.14c.07.06.14.12.2.19.35.37.67.77.66,1.21,0,.63-.22,1.16-.7,1.5-.9.61-1.63.02-2.33-.32-1.37-.67-2.37-1.81-3.23-3.08-1.4-2.05-2.28-1.94-3.03-3.22-.41-.7-.84-1.27-1.35-1.88-.46-.55-.86-1.22-1.36-1.72-1.5-1.51-2.44-2.72-3.07-4.76-.22-.72-.64-1.36-.28-2.18.26-.59,1.27-.45,1.97-.38.41.04.91.54,1.3.74l1.38.68c.41.2,2.09,2.04,2.35,2.51l.8,1.45,1.18,1.67c1.25,1.77,1.25,2.25,2.27,3.65,1.04,1.42,1.26,1.33,2.1,2.79.15.25.34.48.56.67l.59.49h-.01Z"/>
  <path class="st0" d="M11.8,29.99c.04,1.25-2.25.95-3.38.35l-2.69-1.43c-.48-.26-.87-.38-1.25-.77-.42-.43-.81-.85-1.15-1.34-1.73-1.42-2.34-3.45-2.81-5.64-.23-1.05-.66-2.09-.48-3.18.09-.54,1.09-.73,1.44-.38,2.3,2.37,1.47,3.61,1.81,4.47.19.48.69.84,1.09,1.15,1.62,1.27,1.45,1.84,2.69,3.02.5.48,1.17.82,1.78,1.16l1.98,1.1c.55.31.95.8.97,1.47v.02Z"/>
</svg>