<?xml version="1.0" encoding="UTF-8"?><svg id="Layer_1" xmlns="http://www.w3.org/2000/svg" viewBox="0 0 31.05 30.88"><path d="M7.98,3.71c.08-.08.17-.16.26-.23,1.39-1.12,1.58-1.57,3.22-2.38.83-.41,1.69-.64,2.56-.9,1.19-.36,2.52-.08,4.18-.15l1.18-.05c2.09-.08,3.71.6,5.5,1.8.7.47,1.31,1.05,1.85,1.69l1.76,2.12c.38.46.91.85,1.18,1.42.24.51.11,1.19.23,1.73.17.77.27,1.47.39,2.24l.44,2.83c.2,1.31.41,2.5.28,3.84-.11,1.18-.18,2.32-.6,3.44-.11.29-.17.83-.32,1.08l-.81,1.34c-.51.84-1.11,1.63-1.75,2.37l-1.76,2.04c-.68.78-1.74,1.06-2.62,1.5-.76.39-1.45.69-2.3.81l-3.11.45c-1.06.15-2,.2-3.07.15l-1.91-.09c-.42-.02-.95-.24-1.39-.3-1.63-.22-4.04-.7-5.37-1.82l-2.46-2.08-.91-.8c-.77-.68-1.68-3.25-2.02-4.34-.18-.58-.27-1.22-.27-1.85.01-1.31-.12-2.51-.35-3.81l.06-.8c.13-1.79.56-3.55,1.26-5.2l.98-2.32c.28-.67.66-1.31,1.11-1.88l1.47-1.88c.55-.7.86-1.4,1.45-2.03L7.72.14c.16-.17.77-.15.95,0,.23.19.31.65.26.98-.23,1.45-.86,1.13-1.3,1.89-.19.33-.42.62-.69.88l-.36.35c-.7.7-2.93,5.49-3.17,6.17-.36,1.01-.73,1.91-1.15,2.92-.2.48-.11,1.2-.25,1.72-.26.92-.33,1.79-.15,2.73.25,1.28.56,3.82,1.38,4.77.6.7,1.14,1.28,1.69,2.01.59.78,1.42,1.36,2.17,1.98.52.43,1.4,1.18,2.04,1.27l1.15.17c.83.12,1.66.13,2.46.35,2.44.67,1.7,1.05,3.83.64l1.2-.23c.66-.12,1.31-.15,1.99-.2.92-.07,1.81-.39,2.69-.6.82-.2,1.47-.46,2.04-1.06.31-.33.69-.66.97-1.06.8-1.12,1.27-2.4,1.71-3.71.3-.87.86-1.73.88-2.68.03-1.15-.15-2.27-.18-3.39-.1-3.63.76-1.02,0-6.55-.11-.82-.58-1.46-.98-2.15-1.71-3.01-1.33-2.01-3.64-3.98-1.35-1.15-6.6-2.03-7.99-1.2l-2.08,1.24c-2.71,1.62-4.75,1.46-5.84,5.39l-.44,1.6-.54,2.08c-.27,1.04-.52,2.02-.68,3.1-.09.63.28,1.2.43,1.8.2.78.51,1.38.93,2.05s.86,1.39,1.51,1.96c.33.3.66.62,1.04.85.64.39,1.27.91,1.95,1.19,1.72.72,2.36.89,4.12,1.37.69.19,1.44-.21,2.1-.37.88-.21,1.57-.64,2.32-1.1,1.02-.62,1.81-1.35,2.08-2.59.17-.76,1.79-2.83,1.63-5.94-.04-.66-.57-1.26-.69-1.87-.23-1.14-.45-2.99-1.51-3.52-3.89-1.94-3.65-.58-6.04-1.47-.89-.33-1.86.14-2.65.48s-1.33,1.03-1.82,1.74c-.52.74-.34,1.65,0,2.46.64,1.51-.77,3.02,1.32,4.13.35.19.71.47,1.08.08l.42-.17.62-.29c.75-.35,1.79-.85,2.12-1.72l.43-1.12c.26-.68.74-1.41,1.65-1.25.36.06.75.52.85.82.33.97-.84,2.62-1.45,3.63-.46.76-.83,1.46-1.71,1.84-.27.12-.67.45-.94.54-.73.25-1.53.21-2.27.29-.79.09-1.45-.09-2.08-.54l-1.37-.99c-.31-.22-.51-.55-.68-.88-.64-1.22-.74-2.43-.68-3.77.03-.68-.54-1.42-.25-2.15l.66-1.66c.43-1.07,1.27-1.87,2.07-2.67.7-.7,1.6-1.14,2.45-1.59.96-.51,1.87-.33,2.91-.34,1.3,0,2.59-.24,3.87.26,1.97.77,2.8.24,3.2,1.63.27.94.79,1.72,1.37,2.52,1.38,1.91,1.34,2.53,1.29,5l-.05,2.54c-.06,2.58-.52,3.92-1.99,6.08-.42.61-.99.93-1.55,1.33-.87.63-1.68,1.14-2.72,1.46-.73.23-1.45.59-2.23.71-1.15.17-2.24-.15-3.36-.19s-2.05-.21-3.1-.57c-1.36-.46-1.95-.52-3.18-1.73l-1.5-1.48c-.17-.17-.43-.57-.57-.81-.22-.38-1.46-3.52-1.45-3.46l-.13-.76c-.12-.69-.25-1.36-.08-2.13.12-.53.16-1.14.32-1.62.12-.37.22-.65.27-1.04l.05-.36c.02-.18.07-.35.15-.51.3-.64.53-1.52.49-2.16-.01-.21.01-.41.09-.6l.04-.09.24-.72.66-1.53c.09-.22.24-.63.35-1.01.14-.51.41-.97.78-1.34l.51-.51Z"/></svg>