<?xml version="1.0" encoding="UTF-8"?><svg id="Layer_1" xmlns="http://www.w3.org/2000/svg" viewBox="0 0 32.33 30.66"><path d="M19.2,30.61c-1.9-.29-3.5-.33-5.32-.03-.51.08-1.18-.08-1.72-.01-.42.05-1.49-.49-2.32-.69-1.33-.33-1.54.35-4.03-1.2-.45-.28-.71-.72-1-1.14-.89-1.29-1.04-1.16-1.54-1.75l-1.13-1.34c-.62-.73-1.25-1.54-1.56-2.49-.19-.58-.2-1.24-.35-1.84s-.29-1.19-.21-1.81c.4-3.45,1.05-4.7,1.56-7.82.16-1,.54-2,.98-2.92.17-.36.6-.7.8-1.01l1.75-2.73c.3-.47.73-.77,1.17-1.11.56-.44,1.08-.87,1.76-1.18,1.5-.7,2.23-.98,3.84-1.21C13.63.1,12.67,0,14.52,0c1.36,0,2.72.15,4.01.51l3.88,1.09c.49.14.95.16,1.42.41.57.3,1.47.36,1.86.88l.79,1.06c.67.89,1.34,1.68,1.91,2.62.67,1.09,1.58,2.02,2.05,3.24.21.55.46,1.02.75,1.54.43.78.32,1.76.58,2.6l.48,1.55c.22.72-.22,2.3-.4,2.92-.82,2.78-1.3,3.44-1.6,4.75-.17.75-.54,1.27-.94,1.93l-1.25,2.04c-.44.73-1.09,1.2-1.86,1.51-2.18.88-2.44,1.72-4.47,1.85-.78.05-1.72.25-2.56.13ZM29.29,21.74l.41-.7.51-1.24c.53-1.29.76-2.68.72-4.07-.02-.78.09-1.65-.35-2.35l-1.51-2.39c-.46-.72-.73-1.49-1.13-2.24l-.27-.51c-.63-1.18-.84-1.81-1.85-2.65-.6-.51-1.19-.93-1.9-1.29l-1.08-.56c-1.67-.87-1.57-.71-3.22-1.24l-2.18-.7c-1.45-.47-4.92-.18-6.21.46l-1.19.59-.32.18-1.89,1.04c-.16.09-.46.12-.57.24-.86.94-2.81,2.87-3.02,4.03l-.18.99c.08-.45-.88,3.14-.82,2.98-1.07,3.08-.9,2.49-1.48,5.7-.1.54-.08,1.21-.03,1.75.12,1.31.84,2.31,1.41,3.41.6,1.16,1.24,2.17,2.27,2.99.42.33.83.67,1.35.84.3.1.59-.19.5-.5-.05-.18-.12-.34-.2-.44-1.23-1.52-2.67-2.99-3.44-4.85-.55-1.33-.44-2.88-.15-4.26l.58-2.74c.17-.81.46-1.58.71-2.36s.49-1.35.88-2.02c1.22-2.09.54-2.09,2.41-4.06,1.16-1.23,2.54-1.92,4.17-2.37,1.75-.49,2.49-.73,4.45-.62.89.05,1.69.28,2.54.54,1.22.37,2.68.83,3.67,1.7.48.43,1.1.81,1.52,1.36.52.67.96,1.35,1.31,2.05l.6,1.2c.28.56.51,1.15.82,1.69l1.09,1.88c.45.78.34,1.71.43,2.59.1,1.06.36,2.26-.31,3.18-.98,1.36.1.37-1.02,1.79-.57.73-1,1.47-1.37,2.31-.16.36-.53.71-.72,1.03-.85,1.42-1.87,2.93-3.27,3.86.47.59,1.25.42,1.77-.01s1.34-.72,1.82-1.22l1.73-1.86c.77-.83,1.32-1.76,1.9-2.78l.13-.28ZM21.13,26.06c.07-.04.12-.1.16-.17.33-.54.88-.89,1.36-1.33.45-.41.74-1.03,1.08-1.52.68-.99,1.09-1.92,1.61-2.53,1.02-1.2,1.45-2.8,1.2-4.4-.02-.1,0-.23.02-.37.04-.2.04-.41-.02-.61-.6-1.97-1.47-3.95-2.51-5.75l-.83-1.43c-.28-.48-.86-.85-1.21-1.24-.94-1.05-2.02-1.45-3.33-1.72-.86-.18-1.68-.38-2.6-.36l-1.08.02c-.94.01-1.76.2-2.59.62s-1.92.45-2.42,1.25l-.79,1.27-1.25,1.83-1.73,3.13c-.57,1.03-.97,2.04-1,3.24l-.07,2.59c-.03,1.08.19,2.18.68,3.11.86,1.62.76,1.59,2.06,2.93.46.48,2.04,2.26,2.8,1.59.13-.11.15-.3.06-.45-.26-.43-.67-.74-1.03-1.06-1.96-1.75-1.32-1.51-2.4-3.39l-.48-.84c-.05-1.21.08-2.32.3-3.47l.49-2.49c.18-.92,1.17-2.93,1.78-3.71.22-.64.59-1.64,1.23-2.05.77-.49,1.48-.96,2.3-1.39,1.58-.84,4.21-.09,5.78.64.61.53,1.2.98,1.84,1.46.49.37.87.92,1.32,1.3,1.1.94,1.87,2.01,1.97,3.52.03.49.09,1.18-.06,1.67-.26.88-.71,1.7-.61,2.6s-.06,1.63-.25,2.45c-.27,1.21-.67,2.22-1.52,3.17-.41.47-.72,1.19-1.31,1.49-.35.18-.81.38-.79.85,0,.03.01.07.03.11.12.25.44.32.67.17l1.15-.72ZM18.56,25c.24-.3.44-.63.6-.97.6-1.26.87-1.27.58-3.43-.14-1.01.1-1.79.52-2.67.35-.73.42-1.61.5-2.45.04-.41.25-.76.39-1.14.33-.89.12-2.06-.43-2.79-.49-.65-1.09-1.09-1.68-1.55-.7-.55-1.28-.75-2.2-.72-1.24.04-2.65-.31-3.86.21-1.12.48-1.82,1.65-2.18,2.72-.38,1.14-1.41,2.59-1.64,3.35-.31,1.03-.13,2.16-.17,3.22-.03.71.12,1.31.41,1.93.32.68.63,1.35,1.13,1.91l1.98,2.24c.15.17.43.16.57-.02.26-.35.13-.77,0-1.19l-.49-1.57-.26-.9c-.25-.86.44-.87-.04-3.6-.28-1.6.45-3.03,1.83-3.77.84-.45,1.82-.77,2.7-.18.7.47.98,1.37,1.04,2.2.05.66.18,1.26.27,1.87l.28,1.87c.11.72-.23,1.51-.38,2.15-.52,2.14-.97,1.65-1.13,3.14-.06.53-.2,1.04.08,1.51.06.11.2.16.32.12h0c.1-.03.17-.1.19-.2l1.05-1.31ZM15.94,22.43c.14-.52.07-1.12.09-1.63l.04-1.12c.03-.84,0-2.46-.84-2.84-.16-.07-.59.08-.67.26-.27.67-.16,1.46-.08,2.18l.5,4.25c0,.08.02.16.04.24.07.28.48.28.55,0l.36-1.34Z"/></svg>