<?xml version="1.0" encoding="UTF-8"?>
<svg id="Layer_1" xmlns="http://www.w3.org/2000/svg" version="1.1" viewBox="0 0 31.83 31.36">
  <!-- Generator: Adobe Illustrator 30.3.0, SVG Export Plug-In . SVG Version: 2.1.3 Build 182)  -->
  <defs>
    <style>
      .st0 {
        fill: #fff;
      }
    </style>
  </defs>
  <path class="st0" d="M23.74,29.11l-2.34,1.03-1.24.32c-.12.03-4.79,1.5-4.68.6,1.36-.89,1.43-.34,2.56-1.15,1.05-.76,1.74-1.67,2.36-2.8.19-.34.52-.76.75-1.11.68-1.03,1.17-2.04,1.47-3.28.12-.5-.02-1.15.04-1.71.15-1.34-.1-2.53-.29-3.83-.16-1.12.18-2.31-.36-3.41-.76-.06-.81.91-1.28,1.7-.36.61-.56,1.16-.73,1.86-.19.79-.4,1.58-.51,2.4-.09.68-.24,1.26-.5,1.88-1.32,3.08-1.3,2.35-3.2,4.65-.31.37-.47.94-.72,1.37l-.67,1.13c-.24.41-.65.72-.88,1.14s-.67.73-1.16.78c-1.47.13-2.04-.09-3.82-1.11-1.2-.69-2.27-1.48-3.09-2.52-.11-.14-.02-.36.16-.37.35-.02.64.15.93.38.52.4,1.24-.07,1.75-.05,1.01.04,1.52-.36,2.27-.9,1-.73,2.27-1.08,3.45-1.5l.57-.89c.41-.63.87-1.25,1.12-2.06.15-.49.4-.89.65-1.35.37-.67.54-1.46.82-2.18l.47-1.2c.09-.22.37-.64.53-.82l1.12-1.28c.5-.57,1.11-2.13,1.28-2.91-.34-.49-1-.4-1.39-.05l-2.18,1.96c-1.52,1.36-1.27,1.78-3.06,2.77-.32.17-.65.36-.99.52l-1.79.83c-.93.43-1.49,1.43-2.52,2.11l-1.77.42-.89.18c-1.33.27-2.59.19-2.81,1.78-.11.82.35,1.58-.15,1.45-.29-.07-.63-.43-.72-.7-.83-2.55-1.23-2.55-1.98-5.3-.15-.56-.84-3.76.43-2.93.85.56,1.68.86,2.67,1.05.89.17,1.67-.05,2.54-.13,1.59-.14,3.17.23,4.75-.16l1.48-.7c.71-.33,1.42-.73,2.09-1.18.56-.37,1.02-.9,1.55-1.32.89-.71,1.89-1.3,2.85-1.99.07-.05.18-.27.19-.36s-.31-.17-.42-.14c-.85.25-2.06.35-3.03.24l-2.49-.28c-1.17-.13-2.27-.61-3.43-.68-.65-.04-1.37.28-2.04.28-.55,0-1.12.28-1.62.32l-1.98.19c-.23.02-1.86-.14-1.76-.21l-.08-.11c-.09-.11-.14-.25-.15-.39-.1-1.73.75-3.28,2.2-4.28,1.51,1.31,3.33,2.07,5.33,2.11,1.28.02,2.63-.21,3.86.27.71.28,1.4.7,2.2.77l2.97.26c.17.01.52-.21.57-.36s-.19-.47-.36-.53l-1.62-.61c-3.35-1.28-2.91-2.82-4.48-3.84-.82-.53-2.39-.53-3.26-2.25l1.25-.67.25-.11c.3-.14.64-.16.96-.07h0c.15-.03.17.39.27.56.39.69,1.01,1.33,1.65,1.79.82.6,1.52,1.23,2.3,1.85l2.19,1.76c.13.1,1.6,1.18,1.73.86.03-.07.03-.26-.02-.35-.81-1.44-.47-1.63-.97-2.86,0-2.33-1.38-2.07-1.59-3.34-.02-.1.25-.32.35-.28s.28.22.38.25l1.61.57c.12.34.2.84.36,1.16,1.04,2.02.08,2.1.51,3.14.29.7.7,1.62,1.49,1.86.53.16.95-.57,1.09-1.01.3-.91.64-1.71,1.1-2.48.06-.11.09-.23.1-.35,0-.08.07-.08.07-.08.91.13.27.55,1.07.97.04.02.05.06.03.1l-.7,1.28c-.28.51-.58.92-.81,1.48-.27.65-.26,1.59.65,1.77.37.07.86-.5,1-.84.3-.69,1.07-.67,1.61-1.16l.16-.73c.02-.09.13-.11.18-.04.39.56.34-.15,1.1,1.1-.61.76-1.71.63-2.05,1.05-.41.53-.79,1.12-1,1.76-.18.54.57,1.39,1.17,1.5l2.65.52c.73.14,1.4.07,2.17-.1.26.43.34,1.07.11,1.59-.9-.26-1.8-.55-2.74-.52l-.73.03c-.35.01-.69.12-.98.3l-.04.03c-.25.16-.43.4-.51.68l-.05.18c-.09.3-.06.63.07.92,1.04,2.2,2.25,1.07,3.4,3.22.19.36.59.86.68,1.25.05.22.1.39.17.55.12.3.2.61.2.93,0,.69.26.28-.41,1.55-.31.59-.69,1.29-1.15,1.83-.25.31-.75,0-.58-.35.13-.27.42-.6.34-1.31-.12-1.06-.47-2.03-.75-3.05-.21-.77-.48-1.35-1.19-1.84-3.33-2.28-.51-2.49-3.13-3.91-.14-.08-.33-.03-.4.12-.26.54.31,1.04-.12,2.25-.2.58-.08,1.15.14,1.7.67,1.75,1.36,1.84.96,3.99-.11.61-.26,1.17-.52,1.74-.64,1.38-.53,2.98-.13,4.44.05.17.04.34-.01.51h0c-.08.23-.25.41-.47.51v-.02Z"/>
</svg>