<?xml version="1.0" encoding="UTF-8"?><svg id="Layer_1" xmlns="http://www.w3.org/2000/svg" xmlns:xlink="http://www.w3.org/1999/xlink" viewBox="0 0 1280 800"><defs><filter id="drop-shadow-1" x="-25.18" y="-25.18" width="1341" height="861" filterUnits="userSpaceOnUse"><feOffset dx="5" dy="5"/><feGaussianBlur result="blur" stdDeviation="10.06"/><feFlood flood-color="#231f20" flood-opacity=".6"/><feComposite in2="blur" operator="in"/><feComposite in="SourceGraphic"/></filter></defs><rect width="1280" height="800" fill="#fff"/><g filter="url(#drop-shadow-1)"><path d="M1135.18,654.6c-4.63,12.97,11.65,40.46,47.72,61.96,36.08,21.49,97.09,13.43,97.09,13.43V0H0v800h1280v-10.05c-85.54,6.72-144.44-13.29-144.44-13.29-67.64-29.41-78.92-75.37-74.41-111.64,4.51-36.27,72.15-65.82,87.94-88.66,15.78-22.84-6.76-77.91-31.57-108.8-24.8-30.9,42.84-55.92,27.06-79.25-15.78-23.33,22.55-64.48,24.8-94.03,2.25-29.55-83.79-77.93-119.5-77.91s-27.06,47.01,2.25,65.82c29.31,18.81,24.8,65.82-11.27,100.75-36.08,34.93,18.04,92.69,40.59,126.27,22.55,33.58-20.29,75.22-38.33,80.6-18.04,5.37-88.54,29.19-65.39,55.07,23.15,25.89-27.06,64.48-60.88,44.33-33.82-20.15-90.19,26.87-99.21,45.05-9.02,18.19-40.59,26.14-74.41,8.68-33.82-17.46-90.19,13.43-130.78,18.81-40.59,5.37-82.46-30.33-121.76-12.09-39.29,18.24-78.92,5.37-92.45-15.39-13.53-20.77-76.66-23.56-114.99-7.44-38.33,16.12-69.9-4.03-110.48-18.81-40.59-14.78,11.27-42.98-31.57-55.07-42.84-12.09-69.9-34.92-56.37-55.07,13.53-20.15-29.31-52.39-42.84-69.96s-6.76-68.39,0-91.23c6.76-22.84,124.01-41.64,142.05-69.08,18.04-27.44-13.53-51.81,11.27-57.19,24.8-5.37,38.33-20.15,26.97-52.39-11.36-32.24,36.16-55.07,65.47-75.22,29.31-20.15,105.97,1.34,137.54,2.69,31.57,1.34,58.62-41.64,101.46-40.3,42.84,1.34,96.96-14.78,140.84-5.37,43.89,9.4,73.36,26.87,125.22,20.15,51.86-6.72,49.61,5.37,78.92,16.12,29.31,10.75,65.39,1.34,116.59-6.1,51.2-7.44,11.94-24.8,0-38.23-11.94-13.43-85.02-2.69-136.88-6.72s-96.96,12.09-128.52,1.34c-31.57-10.75-54.11-52.39-82.93-59.1-28.82-6.72-61.37,28.21-104.22,10.75-42.84-17.46-101.47,2.69-87.94,16.12,13.53,13.43-29.31,33.58-58.62,17.46-29.31-16.12-51.86,16.12-99.21,33.58-47.35,17.46-114.99-10.75-148.82,9.4-33.82,20.15,29.31,34.92,60.88,61.79,31.57,26.87-49.61,71.19-105.97,76.57-56.37,5.37-45.1-34.93-21.67-68.51,23.42-33.58-39.21-72.54,14.91-104.78,54.11-32.24,92.45-28.21,146.56-21.49,54.11,6.72,87.94-21.49,101.47-36.27,13.53-14.78,69.9-36.27,164.6-29.55,94.7,6.72,81.17,1.34,124.01-8.06,42.84-9.4,112.74-2.69,126.27,41.64,13.53,44.33,47.35,17.46,76.66,15.75,29.31-1.71,24.8,11.11,103.72,1.71,78.92-9.4,135.29,21.49,144.31,55.07,9.02,33.58,11.27,55.07,56.49,68.81,45.22,13.74,73.29,45.36,73.29,45.36,12.53,26.87,61.88,68.51,29.25,95.37-32.62,26.87-28.26,47.01,0,59.1,28.26,12.09-21.49,53.73-46.29,75.22-24.8,21.49,33.82,63.13,33.82,80.6s-12.71,43.59-49.61,63.13c-29.53,15.64-35.03,18.25-38.7,28.52Z"/><path d="M1009.29,550.85c45.1-4.03-4.51-61.79-38.33-73.88-33.82-12.09,21.11-39.04,17.38-46.56-3.73-7.52-70.21-46.13-41.54-75.68,28.67-29.55,57.98-52.39,24.16-69.85-33.82-17.46-54.11-37.61-54.11-49.7s-47.35-11.68-72.15-12.56c-24.8-.88-22.55-25.05-54.11-22.37-31.57,2.69-63.13,11.67-83.43-.21-20.29-11.88-52.02-35.25-78.92-30.07-26.9,5.18-53.33,1.65-75.14,11.93-21.81,10.28-33.09,14.93-55.64,25.37-22.55,10.44-42.84,33.28-72.15,23.87,0,0-65.39-26.87-85.68,14.78-20.29,41.64-22.55,36.27-49.61,68.51s-31.57,51.04,0,76.57c31.57,25.52,68.17,44.33,56.64,72.54-11.54,28.21,22.28,21.49,15.52,52.39-6.76,30.9,18.04,49.7,45.1,51.04,27.06,1.34,31.57,30.9,121.76,6.72,90.19-24.18,127.13,18.55,170.16,3.72,43.03-14.83,116.2-50.69,100.42-74.89-15.78-24.2,15.78-40.32,27.06-52.41,11.27-12.09-20.29-45.67-15.78-64.48,4.51-18.81-4.51-51.04-54.11-61.79-49.61-10.75-85.1-31.48-116.75-41.64-31.65-10.16-71.54-17.48-104.22-11.43-32.68,6.05-69.9,47.69-74.41,67.84-4.51,20.15-29.31,57.85-11.27,73.92,18.04,16.08,2.55,56.91,15,63.66,12.45,6.74,94.33,5.89,119.49-14,18.19-14.39,92.07-18.94,105.6-36.05,13.53-17.11,1.61-55.97-8.34-65.7-24.92-24.36-71.66-20.49-82.93-5.72s31.27,19.1,41.08,45.27c5.54,14.79-20.13,38.01-55.41,25.93-35.28-12.09-84.88-51.04-60.08-77.91,24.8-26.87,100.2-44.33,115.49-36.27s76.17,22.84,87.44,41.64c11.27,18.81,40.59,91.34,15.78,107.46-24.8,16.12-71.16,40.34-103.22,41.66-32.06,1.32-56.08,41.62-86.91,37.59-30.83-4.03-109.75-20.1-123.28-37.59-13.53-17.49-54.11-85.62-63.13-96.55-9.02-10.93,0-32.42,18.04-53.92,18.04-21.49-6.76-57.76,18.04-71.19,24.8-13.43,81.17-29.55,105.97-33.58,24.8-4.03,54.11-14.78,87.94-5.37,33.82,9.4,96.96-12.09,110.48,0,13.53,12.09,24.8,55.07,74.41,51.04,49.61-4.03,69.9-13.43,83.43,32.24,13.53,45.67-9.02,58.13,15.78,80.78,24.8,22.65,4.51,50.86,0,58.92-4.51,8.06-11.27,37.61-36.08,49.7-24.8,12.09-6.76,33.58-24.8,45.67-18.04,12.09-60.88,24.18-67.64,38.95-6.76,14.78-56.49,40.3-81.23,33.58-24.74-6.72-29.25-25.52-67.58-20.15-38.33,5.37-85.68-2.69-110.48,6.72s-96.96,18.81-103.72,1.34c-6.76-17.46-6.76-41.64-38.33-41.64s-60.88-20.15-63.13-30.9c-2.25-10.75-47.35-26.82-40.59-45.65,6.76-18.83,50.68-45.21,42.84-53.73-7.84-8.52-14.86-42.3-43.53-36.25s-48.91-2.09-64.7,15.72c-15.78,17.82-54.11,36.62-58.62,47.37-4.51,10.75-38.71,37.38-17.1,52.27,21.61,14.89,68.96,22.95,62.2,43.1-6.76,20.15,9.02,42.98,29.31,52.39,20.29,9.4,24.63,22.84,24.72,34.93.08,12.09,24.89,25.52,69.98,8.06,45.1-17.46,103.72,9.4,103.72,16.12s17.21,24.18,99.92,6.72c82.71-17.46,60.17,25.52,98.5,25.52s85.68-20.15,119.5-13.43c33.82,6.72,67.64,14.78,90.19-14.78,22.55-29.55,55.16-31.2,88.46-31.72,33.3-.52,28.79-43.5,24.28-55.59s47.35-44.33,92.45-48.36Z"/></g></svg>