<?xml version="1.0" encoding="UTF-8"?><svg id="Layer_2" xmlns="http://www.w3.org/2000/svg" xmlns:xlink="http://www.w3.org/1999/xlink" viewBox="0 0 1440 758"><defs><filter id="drop-shadow-1" x="-10" y="-10" width="1470" height="788" filterUnits="userSpaceOnUse"><feOffset dx="5" dy="5"/><feGaussianBlur result="blur" stdDeviation="5"/><feFlood flood-color="#000" flood-opacity=".6"/><feComposite in2="blur" operator="in"/><feComposite in="SourceGraphic"/></filter></defs><g filter="url(#drop-shadow-1)"><path d="M0,0v758h919.39s2.86-75.76-153.05-107.23c-155.91-31.47-327.55-55.78-349-101.55-21.45-45.77,102.99-154.48,251.02-157.34s216.69-98.69,172.35-125.87c-44.34-27.18-144.46-71.52-163.06-97.26-18.59-25.75,19.5-41.48,19.5-41.48h0c5.95-1.48,12.25-.04,16.95,3.89,1.58,1.32,3.19,2.84,5.04,4.49,23.72,21.14,89.08,75.68,143.03,86.01,67.23,12.87,135.88,48.63,97.26,101.55-38.62,52.92-74.38,115.81-138.74,119.41-64.36,3.6-212.03,31.38-247.45,26.48-50.61-6.99-71.52,72.95,70.09,100.12,141.6,27.18,217.41,5.72,253.17,52.92,35.76,47.2,90.11,55.7,81.53,135.84h461.96V0H0Z" fill="#020102"/></g></svg>