<?xml version="1.0" encoding="UTF-8"?><svg id="Layer_5" xmlns="http://www.w3.org/2000/svg" viewBox="0 0 243.7 563.26"><path d="M72.06,534.14l-8.48.43c-6.12-.1-11.93-.92-18.04-1.54l-8.51-.86c-5.65-.57-22.31-.57-23.09-5.62-.11-.71.61-2.18,1.29-2.65,6.13-4.16,14.46-9.07,21.59-8.58-1-6.16,1.58-11.53,5.5-15.93l1.66-1.86c4-5.35,7.26-10.89,10.44-16.77.99-1.83,2.54-3.36,3.71-5s2.11-3.42,3.45-4.83l7.66-8.04,3.56-4.19c3.93-4.62,10.22-6.12,15.9-7.54l4.63-1.16c8.3-1.01,15.97-2.93,23.8-5.9,1.63-.62,4.08-.83,5.96-1.21l7.79-1.59c6.31-1.29,17.8-4.94,22.97-3.08,3.62,1.3,7.14,3.07,10.24,5.29l3.07,2.21,12.2,9.28,4.67,3.58c2.48,1.9,4.9,3.42,7.86,4.34,2.15.67,3.79,2.07,4.79,4.01l3.46,6.74c1.41,2.75,2.25,6.03,4.35,8.31l4.64,5.03c2.14,2.31,2.44,4.99,1.76,7.92l-.91,3.95-3.02,8.23c-1.52,4.14-4.1,7.81-6.53,11.49l-.73,1.11c-.12.18.17.2.69.23l7.68.84,9.9.89c1.74.16,3.48.91,4.61,2.43-4.79,3.19-10.05,4.1-15.5,4.79l-11.49,1.44-14.13.88-15.96.28-14.76.96c-10.18.66-19.98,1.52-30.15,1.53h-7.67c-12.61.03-24.47-.64-37.44-.19" fill="#f2f2f2"/><path d="M195.55,520.94c2.3-2.37,4.26-5.18,5.98-8.08l3.46-5.85c2.12-3.58,3.23-7.4,4.1-11.46,1.72-8.01-5.16-7.98-8.54-17.37-1.51-4.21-3.86-7.57-6.56-10.95-.76-.95-1.58-2.11-2.78-2.67-5.44-2.54-10.85-4.97-15.36-8.94l-7.26-6.4c-2.23-1.97-4.63-3.03-7.24-4.56l-8.56-5c-1.79-1.04-4.52.33-6.41.44-6.03.36-11.4,1.48-17.16,2.89l-7.1,1.73c-5.44,1.79-10.6,3.6-16.21,4.74l-14.59,2.98c-3.84.78-7.85,1.51-11.33,3.29-2.1,1.07-3.76,3.58-5.6,5.03-1.43,1.13-2.3,2.55-3.51,3.85l-5.82,6.31c-3.86,4.18-7.24,8.14-9.65,13.34-2.02,4.37-4.9,8.28-7.83,12.06l-4.73,6.1c-3.52,4.54-4.83,8.69-3.93,14.54,3.64,2.13,7.41,4.45,11.48,5.46,4.85,1.2,9.31,2.36,13.92,4.23,2.36.96,4.95.99,6.94.09l2.44.43,4.83.55c4.82.55,9.48.36,14.38.35l20.33-.03c3.52,0,6.62.34,10.5-.04l4.21-.41,20.47,1.03c4.28.21,8.29-.12,12.55-.83,2.38-.4,6.72,1.47,17.74-1.02l11.56-2.62c1.69-.38,3.21-1.34,4.47-2.26" fill="#fff"/><path d="M54.79,425.72c-1.52-1.14-2.43-2.92-2.49-4.82-.08-2.67.07-5.88,1.21-8.64l5.84-14.26c1.06-2.6,2.13-4.72,3.89-6.82l1.21-2.34,4.03-4.54,5.3-5.59,9.81-9.28c2.07-1.96,4.45-3.82,5.92-6.3,2.76-4.65,6.59-7.24,10.97-10.14l5.3-4.27,7.42-5.08,4.84-2.85c1.86-1.1,5.13-2.27,7.38-2.45,4.41-.34,9.13.28,13.29,1.75,4.69,1.66,9.21,7.17,15.2,7.58l17.55,1.2,8.5,2.01c4.4,1.04,9.02.39,13.23,2.04l5.66,3.24c3,1.72,4.92,4.85,5.08,8.31l.64,13.42,1.5,9.83,1.3,10.34c.53,4.25,2.43,8.77,4.75,12.25,3.08,4.61,4.56,8.79,5.32,14.25l1.55,4.73c.94,2.86-.11,4.82-2.81,7.3l-7.08,3.58c-1.19.6-2.49.94-3.81.99l-16.37.65-25.28-.55-41.04-1.93c-.97-.05-1.93-.13-2.89-.25l-36.69-4.74c-2.17-.28-4.32-.7-6.44-1.27l-18.64-4.97-3.17-2.38Z" fill="#f2f2f2"/><path d="M217.81,431.2l-2.18-5.72c-.45-1.17-1.19-2.46-1.15-3.73.25-7.44-6-11.7-7.82-20.21l-1.84-8.63-1.45-11.94-1.17-8.07c.58-5.43.19-12.42-3.93-15.02-5.37-3.39-10.79-4.64-17-5.51l-11.55-1.62-14.1-1.5c-6.73-.72-11.52-2.5-16.94-6.65-3.13-2.39-7.2-2.26-10.86-2.23-5.54.05-9.73,1.92-14.2,4.96-7.35,4.99-14.27,10.45-20.51,16.8l-5.64,5.74-11.6,10.89-9.22,10.57c-3.76,5.09-6.51,10.66-9.12,16.5-2.15,4.81-3.96,10.56-2.75,15.83.97,4.23,6.41,6.12,10.26,6.85l14.88,2.85,19,3.18,16.74,2.07c2.58.32,4.85,1.03,7.47,1.09l6.86.13,6.64.16,12.52.58,29.83,1.23,18.41.26c7.32.1,16.96-2.33,20.41-8.81Z" fill="#fff"/><path d="M48.24,345.9l-.95-3.53-.25-4.45-.03-.91.03-2.92.85-4.78,1-5.27,1.72-5.3,1.58-3.87c2.7-6.61,4.92-13.34,9.21-18.98,6.68-8.78,15.1-15.23,25.3-19.15l9.98-3.84,6.78-4.57,24-6.9,11.6-3.87,10.36-2.02,5.88.71c1.84.22,3.99.82,5.31,1.81l3.95,2.96.86.65c2.38,4.32,3.19,9.17,3.42,14.11v5.4s1.75,7.79,1.75,7.79l1.37,16.02.36,6.55.72,7.76-.84,5.8-.36.8-4.09,3.31c-2.49,2.01-5.42,3.4-8.56,4.05l-30.37,6.32-50.03,9.06-19.49,1.66-6.26-.65c-2.05-.53-3.79-1.89-4.79-3.75Z" fill="#f2f2f2"/><path d="M82.56,346.54l12.59-3.32,22.63-3.42,38.8-7.1c1.9-.35,3.65-1.27,5.07-2.33,4.82-1.23,10-6.79,9.6-11.47l-2.02-23.47-1.25-8.86c-.51-3.6-1.14-6.72-1.19-10.32-.08-6.4-.35-11.04-4.97-15.52-1.73-1.68-4.59-2.98-6.89-3.12l-5.99-.37c-6.19.26-11.87,2.72-17.72,4.51l-16.44,5.02-6.94,2.08c-3.58,1.07-6.39,3.25-9.77,4.71l-8.07,3.5-14.09,7.64c-12.59,8.9-15.91,16.13-21.53,29.96l-4.28,14.41c-1.16,3.91-1.46,7.94-1.21,11.92.24,3.82,2.91,6.85,6.74,7.07l9.02.5,8.5-.6,9.39-1.42Z" fill="#fff"/><path d="M104.13,229.19c-3.32-3.61-5.98-7.35-8.18-11.59-.79-1.52-1.84-2.89-3.1-4.04l-2.45-2.24c-1.55-7.8-.52-15.5,2.87-22.8l6.88-17.72,2.55-6.05c1.37-3.26,4.93-5.04,7.34-7.47,3.82-3.86,9.27-7.24,14.63-8.03,2.14-.32,4.87.73,7.06,1.35,4.44,1.24,8.61,1.82,13.15,2.5l10.21,1.53,8.97-.78,2.73.36,7.82-.8,5.63.27c5.34.26,10.44,2.27,14.52,5.73l4.67,3.96,8.16,6.46c8.01,6.34,10.17,14.26,10.5,24.21.17,5.2-.64,10.04-2.54,14.97l-2.18,5.66-1.3,2.29-3.52,5.8-7.76,11.67-6.64,13.77-2.1,4.39-.39.82-2.12,4c-3.01,3.07-7.66,3.56-11.95,3.66l-12.27.28-10.2-2.15-24.79-5.9-5.09-1.63c-1.4-.45-2.71-1.14-3.88-2.03l-5.21-4.01-12.02-16.43Z" fill="#f2f2f2"/><path d="M158.43,258.83c7.79,1.82,14.18,1.8,21.55.55,4.85-.82,8.8-2.35,10.63-7.1l3.9-10.11c1.63-4.24,3.55-7.8,6.08-11.6l4.75-7.13c2.91-4.37,6.04-8.28,7.73-13.21l2.41-7.04c1.89-5.52,1.21-17.37-.26-19.39l-7.91-10.91c-2.53-3.49-5.94-6.37-9.39-8.98l-7.31-5.53c-1.21-.92-4.17-1.89-5.81-2.12l-8.41-1.22-15.53,1.28c-9.41-.63-18.47-1.55-27.68-3.39-2.61-.52-5.54-1.7-8.19-1.09-7.37,1.68-17.04,7.71-20.71,14.11-2.37,4.15-3.84,8.46-5.43,12.93l-5.32,14.96-1.91,8.14c-.75,3.17-.4,6.41.64,9.41,4.69,2.1,5.04,6.69,8.26,11.05l11.68,15.83c4.2,6.64,10.05,12.1,18.02,13.96l11.09,2.59,17.13,3.99Z" fill="#fff"/><path d="M53.08,104.25l2.93-9.09c1.42-4.41,2.73-8.86,3.6-13.53,1.03-5.52,2.87-10.7,4.81-15.95l1.92-4.16,1.67-3.46,6.29-12.89,4.87-6.71c2.06-2.83,5.27-5.8,8.88-6.73l18.29-4.69c2.78-.71,6.24.47,8.98.66l4.06.28,5.8.28c2.53.12,5.31-.35,7.82.46,1.76.57,3.42,2.53,4.93,3.59s2.83,2.05,3.98,3.35l3.55,4c1.45,1.64,1.82,3.25,2.88,5.08l2.96,5.12c5.8,10.03,6.5,17.66,9.82,22.32l4.61,6.47c3.3,4.62,5.2,9.65,6.93,15.29l3.32,10.84c1.56,5.1,2.44,9.86,1.95,15.18-.46,5.01-.78,10.01-2.48,15.16l-4.93,5.85-6.09,3.51-12.43,2.83-14.72,3.97-22.67,3.68c-1.21.2-2.43.32-3.66.37l-14.95.61-19.7,2.22-7.94-.15-4.74-2.2c-1.89-3.26-4.88-2.61-5.74-8.69-.52-1.89-3.17-3.77-3.71-5.67l-2.88-10.03-.31-5.75c-1.82-6.82-1.36-12.67,1.17-19" fill="#f2f2f2"/><path d="M148.23,147.11l8.63-1.83c7.99-1.7,11.88-3.4,16.65-10.25l.75-6.19c1.2-4.88,1.56-9.43.2-14.23.15-4.04.04-8.01-1.1-11.92l-1.82-6.26-2.46-6.23-4.18-9.69c-2.07-4.8-6.18-5.69-8.08-12.33-1.67-5.84-3.94-11.2-6.74-16.54-1.05-3.52-3.06-6.42-5.31-9.26-2.21-2.8-4.14-5.84-7.12-7.89-1.05-.72-3.04-1.24-3.88-2.13-1.24-1.32-2.71-2.39-4.5-2.08-7.93,1.39-14.79-1.75-24.57-.83-5.26.49-10.09,2.53-15.2,3.61-2.35.5-4.31,1.25-5.95,3.11l-4.78,5.41c-2.35,3.37-3.58,7.32-5.58,10.88-2.4,4.27-4.27,8.54-5.91,13.09-2.71,5.4-4.37,10.97-5.62,16.81l-1.57,7.35-4.7,15.3c-1.43,3.6-3.25,7.37-2.85,11.34l1.97,19.43,4.39,9.61c3.75,8.21,6.17,12.24,16.58,11.18l12.73-1.29c5.18-.52,10.14-1.03,15.33-.64l9.15-.49,9.62-1.4,14.73-2.64,11.19-3.01Z" fill="#fff"/></svg>