<?xml version="1.0" encoding="UTF-8"?><svg id="Layer_1" xmlns="http://www.w3.org/2000/svg" viewBox="0 0 239.23 101.1"><path d="M4.22,71.21s22.48-5.93,21.37-12.48-2.83-20.79,14.09-29.81c16.92-9.02,29.66-6.77,42.94-16.82,13.28-10.06,60.18-10.75,64.44-4.52s50.34,5.19,65.53,18.74c15.2,13.55,32.5,30.37,9.33,44.9s-30.8,27.67-46.62,25.59c-15.82-2.08-56.77-3.87-71.56-1.25-14.79,2.63-32.91-2.91-39.84-9.82s-19.72-11.76-27.71-13.83c0,0-22.92,7.61-31.98-.69Z" fill="#fff" stroke="#231f20" stroke-miterlimit="10" stroke-width="1.01"/><text transform="translate(91.99 25.98)" fill="#231f20" font-family="ArialNarrow, &apos;Arial Narrow&apos;" font-size="12"><tspan x="0" y="0">C</tspan><tspan x="7.1" y="0" letter-spacing="-.06em">A</tspan><tspan x="12.94" y="0">TCH</tspan><tspan x="33.16" y="0" xml:space="preserve" letter-spacing="-.04em"> A</tspan><tspan x="41.38" y="0" xml:space="preserve"> WHIFF </tspan><tspan x="-31.73" y="14.4">OF</tspan><tspan x="-18.06" y="14.4" letter-spacing="-.01em"> </tspan><tspan x="-15.5" y="14.4">THE EARS IN</tspan><tspan x="46.28" y="14.4" letter-spacing="-.01em"> </tspan><tspan x="48.85" y="14.4">THE </tspan><tspan x="71.26" y="14.4" letter-spacing="-.03em">W</tspan><tspan x="80.19" y="14.4">ALLS! </tspan><tspan x="-26.08" y="28.8">USE</tspan><tspan x="-5.86" y="28.8" letter-spacing="-.01em"> </tspan><tspan x="-3.29" y="28.8">THE</tspan><tspan x="16.39" y="28.8" letter-spacing="-.04em"> </tspan><tspan x="18.58" y="28.8">ARROW KEYS</tspan><tspan x="85.28" y="28.8" xml:space="preserve" letter-spacing="-.01em"> T</tspan><tspan x="93.69" y="28.8">O </tspan><tspan x="-27.07" y="43.2">COMPLETE</tspan><tspan x="27.06" y="43.2" letter-spacing="-.01em"> </tspan><tspan x="29.62" y="43.2">THE MAZE</tspan><tspan x="79.37" y="43.2" letter-spacing="-.04em"> </tspan><tspan x="81.57" y="43.2">AND </tspan><tspan x="-21.31" y="57.6">CONTINUE DIFFERENT</tspan><tspan x="88" y="57.6" letter-spacing="-.06em">L</tspan><tspan x="92.75" y="57.6" letter-spacing="-.01em">Y</tspan></text></svg>