<?xml version="1.0" encoding="UTF-8"?><svg id="Layer_1" xmlns="http://www.w3.org/2000/svg" viewBox="0 0 239.23 101.1"><path d="M4.22,71.21s22.48-5.93,21.37-12.48c-1.11-6.55,1.02-15.78,14.09-29.81S56.21,7.27,82.61,12.09c16.38,2.99,52.2-.97,64.44-4.52,7.25-2.1,64.8-7.57,65.53,18.74.57,20.35,24.52,28.62,9.33,44.9-18.65,20-30.8,27.67-46.62,25.59-15.82-2.08-56.77-3.87-71.56-1.25-14.79,2.63-32.91-2.91-39.84-9.82s-19.72-11.76-27.71-13.83c0,0-22.92,7.61-31.98-.69Z" fill="#fff" stroke="#231f20" stroke-miterlimit="10" stroke-width="1.01"/><text transform="translate(57.89 29.15)" fill="#231f20" font-family="ArialNarrow, &apos;Arial Narrow&apos;" font-size="12"><tspan x="0" y="0">IN ONE EAR, STUCK FOREVER! </tspan><tspan x="31.61" y="14.4">OU</tspan><tspan x="46.37" y="14.4" letter-spacing="-.01em">T </tspan><tspan x="54.78" y="14.4">THE OTHER...</tspan><tspan x="10.64" y="28.8">USE</tspan><tspan x="30.86" y="28.8" letter-spacing="-.01em"> </tspan><tspan x="33.43" y="28.8">THE</tspan><tspan x="53.11" y="28.8" letter-spacing="-.04em"> </tspan><tspan x="55.3" y="28.8">ARROW KEYS</tspan><tspan x="122" y="28.8" xml:space="preserve" letter-spacing="-.01em"> T</tspan><tspan x="130.41" y="28.8">O </tspan><tspan x="9.65" y="43.2">COMPLETE</tspan><tspan x="63.78" y="43.2" letter-spacing="-.01em"> </tspan><tspan x="66.35" y="43.2">THE MAZE</tspan><tspan x="116.09" y="43.2" letter-spacing="-.04em"> </tspan><tspan x="118.29" y="43.2">AND </tspan><tspan x="15.41" y="57.6">CONTINUE DIFFERENT</tspan><tspan x="124.72" y="57.6" letter-spacing="-.06em">L</tspan><tspan x="129.47" y="57.6" letter-spacing="-.01em">Y</tspan></text></svg>