<?xml version="1.0" encoding="UTF-8"?><svg id="Layer_1" xmlns="http://www.w3.org/2000/svg" viewBox="0 0 239.23 101.1"><path d="M4.22,71.21s22.48-5.93,21.37-12.48c-1.11-6.55-2.83-20.79,14.09-29.81s29.66-6.77,42.94-16.82,60.18-10.75,64.44-4.52,50.34,5.19,65.53,18.74,32.5,30.37,9.33,44.9-30.8,27.67-46.62,25.59c-15.82-2.08-56.77-3.87-71.56-1.25-14.79,2.63-32.91-2.91-39.84-9.82s-19.72-11.76-27.71-13.83c0,0-22.92,7.61-31.98-.69Z" fill="#fff" stroke="#231f20" stroke-miterlimit="10" stroke-width="1.01"/><text transform="translate(82.41 25.98)" fill="#231f20" font-family="ArialNarrow, &apos;Arial Narrow&apos;" font-size="12"><tspan x="0" y="0">KEE</tspan><tspan x="19.69" y="0" letter-spacing="-.01em">P</tspan><tspan x="26.08" y="0" xml:space="preserve" letter-spacing="-.04em"> A</tspan><tspan x="34.3" y="0" xml:space="preserve"> HANDLE ON </tspan><tspan x="-9.11" y="14.4">YOUR SI</tspan><tspan x="31.34" y="14.4" letter-spacing="-.06em">L</tspan><tspan x="36.1" y="14.4">VER</tspan><tspan x="56.32" y="14.4" xml:space="preserve" letter-spacing="-.01em"> T</tspan><tspan x="64.73" y="14.4">ONGUE! </tspan><tspan x="-16.5" y="28.8">USE</tspan><tspan x="3.73" y="28.8" letter-spacing="-.01em"> </tspan><tspan x="6.3" y="28.8">THE</tspan><tspan x="25.97" y="28.8" letter-spacing="-.04em"> </tspan><tspan x="28.17" y="28.8">ARROW KEYS</tspan><tspan x="94.87" y="28.8" xml:space="preserve" letter-spacing="-.01em"> T</tspan><tspan x="103.27" y="28.8">O </tspan><tspan x="-17.48" y="43.2">COMPLETE</tspan><tspan x="36.64" y="43.2" letter-spacing="-.01em"> </tspan><tspan x="39.21" y="43.2">THE MAZE</tspan><tspan x="88.96" y="43.2" letter-spacing="-.04em"> </tspan><tspan x="91.15" y="43.2">AND </tspan><tspan x="-11.73" y="57.6">CONTINUE DIFFERENT</tspan><tspan x="97.58" y="57.6" letter-spacing="-.06em">L</tspan><tspan x="102.34" y="57.6" letter-spacing="-.01em">Y</tspan></text></svg>