<?xml version="1.0" encoding="UTF-8"?><svg id="Layer_1" xmlns="http://www.w3.org/2000/svg" viewBox="0 0 239.23 97.02"><path d="M4.22,67.49s22.48-5.17,21.37-10.87-2.83-18.12,14.09-25.97,29.66-5.9,42.94-14.66,60.18-9.36,64.44-3.94,50.34,4.52,65.53,16.32,32.5,26.46,9.33,39.11-30.8,24.11-46.62,22.3-56.77-3.37-71.56-1.08-32.91-2.53-39.84-8.56-19.72-10.24-27.71-12.05c0,0-22.92,6.63-31.98-.6Z" fill="#fff" stroke="#231f20" stroke-miterlimit="10" stroke-width=".94"/><text transform="translate(91.99 30.98)" fill="#231f20" font-family="ArialNarrow, &apos;Arial Narrow&apos;" font-size="12"><tspan x="0" y="0">C</tspan><tspan x="7.1" y="0" letter-spacing="-.06em">A</tspan><tspan x="12.94" y="0">TCH</tspan><tspan x="33.16" y="0" xml:space="preserve" letter-spacing="-.04em"> A</tspan><tspan x="41.38" y="0" xml:space="preserve"> WHIFF </tspan><tspan x="-31.73" y="14.4">OF</tspan><tspan x="-18.06" y="14.4" letter-spacing="-.01em"> </tspan><tspan x="-15.5" y="14.4">THE EARS IN</tspan><tspan x="46.28" y="14.4" letter-spacing="-.01em"> </tspan><tspan x="48.85" y="14.4">THE </tspan><tspan x="71.26" y="14.4" letter-spacing="-.03em">W</tspan><tspan x="80.19" y="14.4">ALLS! </tspan><tspan x="-15.59" y="28.8">COMPLETE</tspan><tspan x="38.54" y="28.8" letter-spacing="-.01em"> </tspan><tspan x="41.11" y="28.8">THE MAZE </tspan><tspan x="-29.43" y="43.2" letter-spacing="-.01em">T</tspan><tspan x="-23.59" y="43.2">O CONTINUE DIFFERENT</tspan><tspan x="96.12" y="43.2" letter-spacing="-.06em">L</tspan><tspan x="100.87" y="43.2" letter-spacing="-.01em">Y</tspan></text></svg>