<?xml version="1.0" encoding="UTF-8"?>
<svg id="Layer_1" xmlns="http://www.w3.org/2000/svg" version="1.1" viewBox="0 0 414.32 425.39">
  <!-- Generator: Adobe Illustrator 30.4.0, SVG Export Plug-In . SVG Version: 2.1.4 Build 226)  -->
  <defs>
    <style>
      .st0 {
        fill: #144c81;
      }

      .st1 {
        fill: #fff;
      }
    </style>
  </defs>
  <path class="st0" d="M267.97,319.96s36.23-10.35,46.59-31.58c10.35-21.22,25.88-33.13,27.95-55.39s-5.69-60.05,9.84-69.36,33.13-12.94,41.93-30.02,14.49-30.02,11.91-37.79c-2.59-7.76-2.07-11.39-13.98,6.21-11.91,17.6-32.61,2.59-47.11,33.13,0,0-13.46-15.01-28.47-16.56s-22.78-28.47-24.85-15.01c-2.07,13.46,4.14,37.79,18.12,46.59,13.98,8.8,23.29,16.56,17.08,28.47s-10.35,37.79-35.2,38.82-76.61-33.65-95.25-36.75c-18.64-3.11-56.42-25.88-91.62-22.26s-39.34-8.8-60.05,9.32c0,0-39.86-1.55-33.13,16.05,0,0-18.12,6.73,20.71,33.13,8.28,4.14,22.78,21.74,30.54,39.34,7.76,17.6,20.19,18.64,30.54,27.95,10.35,9.32,20.71,18.64,20.71,18.64,0,0-4.14,13.46,6.21,28.99s10.87,33.65,27.95,45.03c17.08,11.39,50.21,34.68,39.34,19.15-10.87-15.53-21.74-28.99-21.74-37.27s1.04-23.29-6.73-30.54c-7.76-7.25-8.28-12.42-8.28-12.42,0,0,21.22,11.39,35.72,11.39s33.65,4.14,33.65,4.14c0,0,11.91,23.81,22.78,30.54s40.38,16.05,47.11,26.92c6.73,10.87,28.47,33.13,18.64,3.62-9.84-29.51-10.87-29.51-20.19-37.79s-17.08-17.6-17.08-22.26-3.62-12.42-3.62-12.42h-.02Z"/>
  <g>
    <path class="st1" d="M147.92,98.23c-1.44,13.52-8,21.2-20.96,21.2-15.12,0-22.4-11.28-22.4-30.08s7.68-30,22.8-30c12.8,0,18.96,8.4,20.08,21.12h-11.76c-.64-7.92-3.04-11.68-8.8-11.68-6.4,0-9.6,6.08-9.6,20.56s3.04,20.64,9.6,20.64c5.2,0,8.56-3.12,9.12-11.76h11.92Z"/>
    <path class="st1" d="M181.92,60.39h17.28v58h-11.76v-26.4l.24-21.76h-.48l-4.96,29.52h-8.48l-4.88-29.52h-.56l.24,21.76v26.4h-11.76v-58h17.28l3.92,24.56,3.92-24.56Z"/>
  </g>
</svg>